<mxfile host="Electron" modified="2024-06-01T08:26:48.663Z" agent="Mozilla/5.0 (Windows NT 10.0; Win64; x64) AppleWebKit/537.36 (KHTML, like Gecko) draw.io/24.2.5 Chrome/120.0.6099.109 Electron/28.1.0 Safari/537.36" etag="r0uKS1l_Fh3jmUuUn9gm" version="24.2.5" type="device">
  <diagram name="Страница — 1" id="pnTk2gX4rgAp5JiaQagt">
    <mxGraphModel dx="1173" dy="695" grid="1" gridSize="32" guides="1" tooltips="1" connect="1" arrows="1" fold="1" page="1" pageScale="1" pageWidth="827" pageHeight="1169" math="0" shadow="0">
      <root>
        <mxCell id="0" />
        <mxCell id="1" parent="0" />
        <mxCell id="0xJNkzR_WOn_rcbIheBu-6" style="edgeStyle=orthogonalEdgeStyle;rounded=0;orthogonalLoop=1;jettySize=auto;html=1;entryX=0.5;entryY=0;entryDx=0;entryDy=0;" parent="1" source="0xJNkzR_WOn_rcbIheBu-1" target="0xJNkzR_WOn_rcbIheBu-2" edge="1">
          <mxGeometry relative="1" as="geometry" />
        </mxCell>
        <mxCell id="0xJNkzR_WOn_rcbIheBu-1" value="СТАРТ" style="ellipse;whiteSpace=wrap;html=1;" parent="1" vertex="1">
          <mxGeometry x="354" y="30" width="120" height="80" as="geometry" />
        </mxCell>
        <mxCell id="0xJNkzR_WOn_rcbIheBu-7" style="edgeStyle=orthogonalEdgeStyle;rounded=0;orthogonalLoop=1;jettySize=auto;html=1;" parent="1" source="0xJNkzR_WOn_rcbIheBu-2" target="0xJNkzR_WOn_rcbIheBu-4" edge="1">
          <mxGeometry relative="1" as="geometry" />
        </mxCell>
        <mxCell id="0xJNkzR_WOn_rcbIheBu-2" value="Заполнение вектора (таблицы смежности) статичными значениями&amp;nbsp;" style="rounded=0;whiteSpace=wrap;html=1;" parent="1" vertex="1">
          <mxGeometry x="326" y="150" width="176" height="60" as="geometry" />
        </mxCell>
        <mxCell id="0xJNkzR_WOn_rcbIheBu-10" value="" style="edgeStyle=orthogonalEdgeStyle;rounded=0;orthogonalLoop=1;jettySize=auto;html=1;" parent="1" source="0xJNkzR_WOn_rcbIheBu-4" target="0xJNkzR_WOn_rcbIheBu-5" edge="1">
          <mxGeometry relative="1" as="geometry" />
        </mxCell>
        <mxCell id="0xJNkzR_WOn_rcbIheBu-4" value="Ввод стартовой вершины" style="shape=parallelogram;perimeter=parallelogramPerimeter;whiteSpace=wrap;html=1;fixedSize=1;" parent="1" vertex="1">
          <mxGeometry x="354" y="250" width="120" height="60" as="geometry" />
        </mxCell>
        <mxCell id="0xJNkzR_WOn_rcbIheBu-12" style="edgeStyle=orthogonalEdgeStyle;rounded=0;orthogonalLoop=1;jettySize=auto;html=1;entryX=0.5;entryY=0;entryDx=0;entryDy=0;" parent="1" source="0xJNkzR_WOn_rcbIheBu-5" target="0xJNkzR_WOn_rcbIheBu-11" edge="1">
          <mxGeometry relative="1" as="geometry" />
        </mxCell>
        <mxCell id="0xJNkzR_WOn_rcbIheBu-5" value="Ввод конечной вершины" style="shape=parallelogram;perimeter=parallelogramPerimeter;whiteSpace=wrap;html=1;fixedSize=1;" parent="1" vertex="1">
          <mxGeometry x="354" y="350" width="120" height="60" as="geometry" />
        </mxCell>
        <mxCell id="0xJNkzR_WOn_rcbIheBu-14" value="" style="edgeStyle=orthogonalEdgeStyle;rounded=0;orthogonalLoop=1;jettySize=auto;html=1;" parent="1" source="0xJNkzR_WOn_rcbIheBu-11" target="0xJNkzR_WOn_rcbIheBu-13" edge="1">
          <mxGeometry relative="1" as="geometry" />
        </mxCell>
        <mxCell id="0xJNkzR_WOn_rcbIheBu-11" value="Декларирование стека (пер. S) сост&lt;span style=&quot;background-color: initial;&quot;&gt;. из вершин и инициализация его стартовой вершиной&lt;/span&gt;" style="rounded=0;whiteSpace=wrap;html=1;" parent="1" vertex="1">
          <mxGeometry x="324" y="450" width="180" height="60" as="geometry" />
        </mxCell>
        <mxCell id="0xJNkzR_WOn_rcbIheBu-16" value="" style="edgeStyle=orthogonalEdgeStyle;rounded=0;orthogonalLoop=1;jettySize=auto;html=1;" parent="1" source="0xJNkzR_WOn_rcbIheBu-13" target="0xJNkzR_WOn_rcbIheBu-15" edge="1">
          <mxGeometry relative="1" as="geometry" />
        </mxCell>
        <mxCell id="0xJNkzR_WOn_rcbIheBu-13" value="Декларирование вектора для использованных вершин размера матрицы смежности и инциализация: все элементы false, кроме начальной вершиной - она изначально использована" style="rounded=0;whiteSpace=wrap;html=1;" parent="1" vertex="1">
          <mxGeometry x="324" y="554.5" width="180" height="105.5" as="geometry" />
        </mxCell>
        <mxCell id="0xJNkzR_WOn_rcbIheBu-18" value="" style="edgeStyle=orthogonalEdgeStyle;rounded=0;orthogonalLoop=1;jettySize=auto;html=1;" parent="1" source="0xJNkzR_WOn_rcbIheBu-15" target="0xJNkzR_WOn_rcbIheBu-17" edge="1">
          <mxGeometry relative="1" as="geometry" />
        </mxCell>
        <mxCell id="0xJNkzR_WOn_rcbIheBu-15" value="Декларирование вектора для хранения количества варинтов путей в каждую вершину (пер. D)&amp;nbsp;" style="rounded=0;whiteSpace=wrap;html=1;" parent="1" vertex="1">
          <mxGeometry x="324" y="700" width="180" height="70" as="geometry" />
        </mxCell>
        <mxCell id="0xJNkzR_WOn_rcbIheBu-24" style="edgeStyle=orthogonalEdgeStyle;rounded=0;orthogonalLoop=1;jettySize=auto;html=1;entryX=0.5;entryY=0;entryDx=0;entryDy=0;" parent="1" source="0xJNkzR_WOn_rcbIheBu-17" target="0xJNkzR_WOn_rcbIheBu-19" edge="1">
          <mxGeometry relative="1" as="geometry" />
        </mxCell>
        <mxCell id="0xJNkzR_WOn_rcbIheBu-29" value="Нет" style="edgeLabel;html=1;align=center;verticalAlign=middle;resizable=0;points=[];" parent="0xJNkzR_WOn_rcbIheBu-24" vertex="1" connectable="0">
          <mxGeometry x="-0.717" y="-2" relative="1" as="geometry">
            <mxPoint x="9" y="-8" as="offset" />
          </mxGeometry>
        </mxCell>
        <mxCell id="0xJNkzR_WOn_rcbIheBu-53" style="edgeStyle=orthogonalEdgeStyle;rounded=0;orthogonalLoop=1;jettySize=auto;html=1;entryX=0.5;entryY=0;entryDx=0;entryDy=0;" parent="1" source="0xJNkzR_WOn_rcbIheBu-17" target="muBdUHlWdhbO27ATEN9z-6" edge="1">
          <mxGeometry relative="1" as="geometry">
            <mxPoint x="730" y="910" as="targetPoint" />
          </mxGeometry>
        </mxCell>
        <mxCell id="0xJNkzR_WOn_rcbIheBu-76" value="Да" style="edgeLabel;html=1;align=center;verticalAlign=middle;resizable=0;points=[];" parent="0xJNkzR_WOn_rcbIheBu-53" vertex="1" connectable="0">
          <mxGeometry x="-0.883" relative="1" as="geometry">
            <mxPoint x="3" y="-10" as="offset" />
          </mxGeometry>
        </mxCell>
        <mxCell id="0xJNkzR_WOn_rcbIheBu-17" value="Стек вершин&amp;nbsp;&lt;div&gt;пустой&lt;/div&gt;" style="rhombus;whiteSpace=wrap;html=1;" parent="1" vertex="1">
          <mxGeometry x="336" y="820" width="156" height="80" as="geometry" />
        </mxCell>
        <mxCell id="muBdUHlWdhbO27ATEN9z-4" value="" style="edgeStyle=orthogonalEdgeStyle;rounded=0;orthogonalLoop=1;jettySize=auto;html=1;" parent="1" source="0xJNkzR_WOn_rcbIheBu-19" target="muBdUHlWdhbO27ATEN9z-3" edge="1">
          <mxGeometry relative="1" as="geometry" />
        </mxCell>
        <mxCell id="0xJNkzR_WOn_rcbIheBu-19" value="Получение вершины из стека (пер. S) и удаление его из стека" style="rounded=0;whiteSpace=wrap;html=1;" parent="1" vertex="1">
          <mxGeometry x="200" y="900" width="120" height="60" as="geometry" />
        </mxCell>
        <mxCell id="0xJNkzR_WOn_rcbIheBu-27" style="edgeStyle=orthogonalEdgeStyle;rounded=0;orthogonalLoop=1;jettySize=auto;html=1;entryX=0.5;entryY=1;entryDx=0;entryDy=0;" parent="1" source="0xJNkzR_WOn_rcbIheBu-23" target="0xJNkzR_WOn_rcbIheBu-17" edge="1">
          <mxGeometry relative="1" as="geometry">
            <Array as="points">
              <mxPoint x="414" y="1180" />
            </Array>
          </mxGeometry>
        </mxCell>
        <mxCell id="0xJNkzR_WOn_rcbIheBu-28" value="Нет" style="edgeLabel;html=1;align=center;verticalAlign=middle;resizable=0;points=[];" parent="0xJNkzR_WOn_rcbIheBu-27" vertex="1" connectable="0">
          <mxGeometry x="-0.9115" y="2" relative="1" as="geometry">
            <mxPoint y="-9" as="offset" />
          </mxGeometry>
        </mxCell>
        <mxCell id="0xJNkzR_WOn_rcbIheBu-35" value="" style="edgeStyle=orthogonalEdgeStyle;rounded=0;orthogonalLoop=1;jettySize=auto;html=1;" parent="1" source="0xJNkzR_WOn_rcbIheBu-23" target="0xJNkzR_WOn_rcbIheBu-30" edge="1">
          <mxGeometry relative="1" as="geometry">
            <Array as="points">
              <mxPoint x="260" y="1280" />
              <mxPoint x="260" y="1280" />
            </Array>
          </mxGeometry>
        </mxCell>
        <mxCell id="0xJNkzR_WOn_rcbIheBu-36" value="Да" style="edgeLabel;html=1;align=center;verticalAlign=middle;resizable=0;points=[];" parent="0xJNkzR_WOn_rcbIheBu-35" vertex="1" connectable="0">
          <mxGeometry x="-0.7148" relative="1" as="geometry">
            <mxPoint x="20" y="-2" as="offset" />
          </mxGeometry>
        </mxCell>
        <mxCell id="0xJNkzR_WOn_rcbIheBu-23" value="Счетчик i меньше&amp;nbsp;&lt;div&gt;кол-ва смежных вершин&amp;nbsp;&lt;/div&gt;" style="rhombus;whiteSpace=wrap;html=1;" parent="1" vertex="1">
          <mxGeometry x="145.5" y="1130" width="229" height="100" as="geometry" />
        </mxCell>
        <mxCell id="0xJNkzR_WOn_rcbIheBu-40" value="" style="edgeStyle=orthogonalEdgeStyle;rounded=0;orthogonalLoop=1;jettySize=auto;html=1;" parent="1" source="0xJNkzR_WOn_rcbIheBu-30" target="0xJNkzR_WOn_rcbIheBu-39" edge="1">
          <mxGeometry relative="1" as="geometry" />
        </mxCell>
        <mxCell id="0xJNkzR_WOn_rcbIheBu-30" value="Получение i-ой смежной вершины к выбранной вершине v" style="rounded=0;whiteSpace=wrap;html=1;" parent="1" vertex="1">
          <mxGeometry x="200" y="1280" width="120" height="60" as="geometry" />
        </mxCell>
        <mxCell id="0xJNkzR_WOn_rcbIheBu-43" value="" style="edgeStyle=orthogonalEdgeStyle;rounded=0;orthogonalLoop=1;jettySize=auto;html=1;" parent="1" source="0xJNkzR_WOn_rcbIheBu-39" target="0xJNkzR_WOn_rcbIheBu-42" edge="1">
          <mxGeometry relative="1" as="geometry" />
        </mxCell>
        <mxCell id="0xJNkzR_WOn_rcbIheBu-39" value="Инкрементация счетчика i" style="rounded=0;whiteSpace=wrap;html=1;" parent="1" vertex="1">
          <mxGeometry x="200" y="1380" width="120" height="60" as="geometry" />
        </mxCell>
        <mxCell id="0xJNkzR_WOn_rcbIheBu-45" value="" style="edgeStyle=orthogonalEdgeStyle;rounded=0;orthogonalLoop=1;jettySize=auto;html=1;" parent="1" source="0xJNkzR_WOn_rcbIheBu-42" target="0xJNkzR_WOn_rcbIheBu-44" edge="1">
          <mxGeometry relative="1" as="geometry" />
        </mxCell>
        <mxCell id="0xJNkzR_WOn_rcbIheBu-50" value="Да" style="edgeLabel;html=1;align=center;verticalAlign=middle;resizable=0;points=[];" parent="0xJNkzR_WOn_rcbIheBu-45" vertex="1" connectable="0">
          <mxGeometry x="-0.3935" y="1" relative="1" as="geometry">
            <mxPoint x="9" as="offset" />
          </mxGeometry>
        </mxCell>
        <mxCell id="0xJNkzR_WOn_rcbIheBu-42" value="Вершина&lt;span style=&quot;background-color: initial;&quot;&gt;&amp;nbsp;не&lt;/span&gt;&lt;div&gt;&lt;div&gt;использовалась ранее (еще нету в использованных)&lt;/div&gt;&lt;/div&gt;" style="rhombus;whiteSpace=wrap;html=1;" parent="1" vertex="1">
          <mxGeometry x="145.5" y="1480" width="229" height="100" as="geometry" />
        </mxCell>
        <mxCell id="0xJNkzR_WOn_rcbIheBu-47" value="" style="edgeStyle=orthogonalEdgeStyle;rounded=0;orthogonalLoop=1;jettySize=auto;html=1;" parent="1" source="0xJNkzR_WOn_rcbIheBu-44" target="0xJNkzR_WOn_rcbIheBu-46" edge="1">
          <mxGeometry relative="1" as="geometry" />
        </mxCell>
        <mxCell id="0xJNkzR_WOn_rcbIheBu-44" value="Помечаем вершину как использованную" style="rounded=0;whiteSpace=wrap;html=1;" parent="1" vertex="1">
          <mxGeometry x="200" y="1620" width="120" height="60" as="geometry" />
        </mxCell>
        <mxCell id="0xJNkzR_WOn_rcbIheBu-49" value="" style="edgeStyle=orthogonalEdgeStyle;rounded=0;orthogonalLoop=1;jettySize=auto;html=1;" parent="1" source="0xJNkzR_WOn_rcbIheBu-46" target="0xJNkzR_WOn_rcbIheBu-48" edge="1">
          <mxGeometry relative="1" as="geometry" />
        </mxCell>
        <mxCell id="0xJNkzR_WOn_rcbIheBu-46" value="Добавляем вершину в стек вершин" style="rounded=0;whiteSpace=wrap;html=1;" parent="1" vertex="1">
          <mxGeometry x="200" y="1724" width="120" height="60" as="geometry" />
        </mxCell>
        <mxCell id="0xJNkzR_WOn_rcbIheBu-51" style="edgeStyle=orthogonalEdgeStyle;rounded=0;orthogonalLoop=1;jettySize=auto;html=1;" parent="1" source="0xJNkzR_WOn_rcbIheBu-48" target="0xJNkzR_WOn_rcbIheBu-23" edge="1">
          <mxGeometry relative="1" as="geometry">
            <Array as="points">
              <mxPoint x="40" y="1880" />
              <mxPoint x="40" y="1180" />
            </Array>
          </mxGeometry>
        </mxCell>
        <mxCell id="0xJNkzR_WOn_rcbIheBu-48" value="Количество возможных вариантов прихода в эту смежную вершину = кол-во путей у выбранной вершины v + 1 (исп. вектор D)" style="rounded=0;whiteSpace=wrap;html=1;" parent="1" vertex="1">
          <mxGeometry x="174" y="1836" width="172" height="86" as="geometry" />
        </mxCell>
        <mxCell id="0xJNkzR_WOn_rcbIheBu-73" value="КОНЕЦ" style="ellipse;whiteSpace=wrap;html=1;" parent="1" vertex="1">
          <mxGeometry x="512" y="1140" width="120" height="80" as="geometry" />
        </mxCell>
        <mxCell id="0xJNkzR_WOn_rcbIheBu-78" value="ОБХОД ГРАФА В ГЛУБИНУ" style="text;html=1;align=center;verticalAlign=middle;whiteSpace=wrap;rounded=0;fontSize=56;fontStyle=1" parent="1" vertex="1">
          <mxGeometry x="827" y="110" width="741" height="30" as="geometry" />
        </mxCell>
        <mxCell id="muBdUHlWdhbO27ATEN9z-5" value="" style="edgeStyle=orthogonalEdgeStyle;rounded=0;orthogonalLoop=1;jettySize=auto;html=1;" parent="1" source="muBdUHlWdhbO27ATEN9z-3" target="0xJNkzR_WOn_rcbIheBu-23" edge="1">
          <mxGeometry relative="1" as="geometry" />
        </mxCell>
        <mxCell id="muBdUHlWdhbO27ATEN9z-3" value="Декларирование счетчика i = 0" style="rounded=0;whiteSpace=wrap;html=1;" parent="1" vertex="1">
          <mxGeometry x="200" y="1010" width="120" height="60" as="geometry" />
        </mxCell>
        <mxCell id="muBdUHlWdhbO27ATEN9z-8" value="" style="edgeStyle=orthogonalEdgeStyle;rounded=0;orthogonalLoop=1;jettySize=auto;html=1;" parent="1" source="muBdUHlWdhbO27ATEN9z-6" target="muBdUHlWdhbO27ATEN9z-7" edge="1">
          <mxGeometry relative="1" as="geometry" />
        </mxCell>
        <mxCell id="muBdUHlWdhbO27ATEN9z-6" value="Получение кол-во возможных путей до конечной точки" style="rounded=0;whiteSpace=wrap;html=1;" parent="1" vertex="1">
          <mxGeometry x="512" y="900" width="120" height="60" as="geometry" />
        </mxCell>
        <mxCell id="muBdUHlWdhbO27ATEN9z-9" value="" style="edgeStyle=orthogonalEdgeStyle;rounded=0;orthogonalLoop=1;jettySize=auto;html=1;" parent="1" source="muBdUHlWdhbO27ATEN9z-7" target="0xJNkzR_WOn_rcbIheBu-73" edge="1">
          <mxGeometry relative="1" as="geometry" />
        </mxCell>
        <mxCell id="muBdUHlWdhbO27ATEN9z-7" value="Вывод&amp;nbsp;&lt;div&gt;кратчейшего&amp;nbsp;&lt;/div&gt;&lt;div&gt;пути (пер. D)&amp;nbsp;&lt;/div&gt;" style="shape=parallelogram;perimeter=parallelogramPerimeter;whiteSpace=wrap;html=1;fixedSize=1;rounded=0;" parent="1" vertex="1">
          <mxGeometry x="512" y="1010" width="120" height="60" as="geometry" />
        </mxCell>
      </root>
    </mxGraphModel>
  </diagram>
</mxfile>
